<?xml version="1.0" encoding="UTF-8"?>
<svg width="48" height="48" viewBox="0 0 24 24" fill="none" xmlns="http://www.w3.org/2000/svg">
    <path d="M12 15C13.6569 15 15 13.6569 15 12C15 10.3431 13.6569 9 12 9C10.3431 9 9 10.3431 9 12C9 13.6569 10.3431 15 12 15Z" stroke="currentColor" stroke-width="2" stroke-linecap="round" stroke-linejoin="round"/>
    <path d="M19.4 15C19.1277 15.6171 19.0891 16.3081 19.2911 16.9517C19.4931 17.5953 19.9234 18.1561 20.5 18.54L20.6 18.6C21.0817 18.9239 21.4751 19.3524 21.7478 19.8527C22.0205 20.353 22.1638 20.9127 22.1638 21.4821C22.1638 22.0515 22.0205 22.6112 21.7478 23.1115C21.4751 23.6118 21.0817 24.0403 20.6 24.3642L20.5 24.4C19.9234 24.7839 19.4931 25.3447 19.2911 25.9883C19.0891 26.6319 19.1277 27.3229 19.4 27.94C19.6723 28.5571 20.1543 29.0571 20.7608 29.3612C21.3674 29.6652 22.0666 29.7552 22.74 29.62L22.86 29.59C23.4953 29.4551 24.1543 29.4882 24.7734 29.6862C25.3925 29.8842 25.9461 30.2397 26.3773 30.7157C26.8085 31.1916 27.1003 31.7712 27.2229 32.3974C27.3455 33.0236 27.2941 33.6711 27.0745 34.2724C26.8548 34.8737 26.4748 35.4074 25.9754 35.8167C25.476 36.2261 24.8762 36.4956 24.24 36.6L24.11 36.62C23.4366 36.7552 22.8399 37.1064 22.4084 37.6179C21.9768 38.1295 21.7346 38.771 21.72 39.44V39.6C21.72 40.7426 21.2657 41.8383 20.4593 42.6447C19.653 43.451 18.5573 43.9053 17.4147 43.9053C16.2721 43.9053 15.1764 43.451 14.37 42.6447C13.5637 41.8383 13.1093 40.7426 13.1093 39.6V39.44C13.0948 38.771 12.8525 38.1295 12.421 37.6179C11.9894 37.1064 11.3928 36.7552 10.7193 36.62L10.5893 36.6C9.95315 36.4956 9.35339 36.2261 8.85397 35.8167C8.35456 35.4074 7.97458 34.8737 7.75492 34.2724C7.53527 33.6711 7.48391 33.0236 7.60648 32.3974C7.72906 31.7712 8.02089 31.1916 8.45207 30.7157C8.88326 30.2397 9.43688 29.8842 10.056 29.6862C10.6751 29.4882 11.3341 29.4551 11.9693 29.59L12.0893 29.62C12.7628 29.7552 13.462 29.6652 14.0685 29.3612C14.6751 29.0571 15.1571 28.5571 15.4293 27.94C15.7017 27.3229 15.7403 26.6319 15.5383 25.9883C15.3363 25.3447 14.906 24.7839 14.3293 24.4L14.2293 24.3642C13.7477 24.0403 13.3542 23.6118 13.0815 23.1115C12.8089 22.6112 12.6655 22.0515 12.6655 21.4821C12.6655 20.9127 12.8089 20.353 13.0815 19.8527C13.3542 19.3524 13.7477 18.9239 14.2293 18.6L14.3293 18.54C14.906 18.1561 15.3363 17.5953 15.5383 16.9517C15.7403 16.3081 15.7017 15.6171 15.4293 15C15.1571 14.3829 14.6751 13.8829 14.0685 13.5788C13.462 13.2748 12.7628 13.1848 12.0893 13.32L11.9693 13.35C11.3341 13.4849 10.6751 13.4518 10.056 13.2538C9.43688 13.0558 8.88326 12.7003 8.45207 12.2243C8.02089 11.7484 7.72906 11.1688 7.60648 10.5426C7.48391 9.91641 7.53527 9.26894 7.75492 8.66762C7.97458 8.0663 8.35456 7.53264 8.85397 7.12329C9.35339 6.71394 9.95315 6.44441 10.5893 6.34L10.7193 6.32C11.3928 6.18484 11.9894 5.83363 12.421 5.32206C12.8525 4.81048 13.0948 4.16903 13.1093 3.5V3.34C13.1093 2.19739 13.5637 1.10167 14.37 0.295321C15.1764 -0.511024 16.2721 -0.965321 17.4147 -0.965321C18.5573 -0.965321 19.653 -0.511024 20.4593 0.295321C21.2657 1.10167 21.72 2.19739 21.72 3.34V3.5C21.7346 4.16903 21.9768 4.81048 22.4084 5.32206C22.8399 5.83363 23.4366 6.18484 24.11 6.32L24.24 6.34C24.8762 6.44441 25.476 6.71394 25.9754 7.12329C26.4748 7.53264 26.8548 8.0663 27.0745 8.66762C27.2941 9.26894 27.3455 9.91641 27.2229 10.5426C27.1003 11.1688 26.8085 11.7484 26.3773 12.2243C25.9461 12.7003 25.3925 13.0558 24.7734 13.2538C24.1543 13.4518 23.4953 13.4849 22.86 13.35L22.74 13.32C22.0666 13.1848 21.3674 13.2748 20.7608 13.5788C20.1543 13.8829 19.6723 14.3829 19.4 15Z" stroke="currentColor" stroke-width="2" stroke-linecap="round" stroke-linejoin="round"/>
</svg> 